<svg width="79" height="7" viewBox="0 0 79 7" fill="none" xmlns="http://www.w3.org/2000/svg">
<path d="M0.791016 3.90322C0.791016 2.99817 2.00443 2.22469 2.696 1.85124C3.80811 1.2507 5.27663 0.913745 6.44718 1.49259C8.16161 2.34038 9.47948 3.88293 11.3272 4.46766C13.6591 5.20559 15.7821 4.81811 17.8301 3.57984C19.6579 2.47464 21.5585 1.19861 23.7802 1.19861C26.3824 1.19861 28.5414 2.73266 30.7181 3.98553C32.9223 5.2542 35.1046 6.40033 37.7207 6.31385C41.5845 6.18612 44.8372 3.69175 48.4803 2.65087C49.9568 2.22903 51.5631 2.06311 53.0958 2.23342C54.7376 2.41584 56.0358 4.0863 57.3526 4.94978C58.7628 5.87447 60.1244 6.43183 61.8329 5.97283C63.6282 5.4905 65.0911 4.10716 66.4895 2.97424C68.0359 1.7215 69.0648 1.54648 70.8521 2.36865C71.6745 2.74691 72.4924 3.18642 73.3686 3.43285C74.6649 3.79742 76.2078 3.57359 77.5196 3.47989" stroke="white" stroke-linecap="round"/>
</svg>
